<svg height="512" viewBox="0 0 64 64" fill="#ffffff" width="512" xmlns="http://www.w3.org/2000/svg"><path d="M51 32a19 19 0 10-19 19 19.017 19.017 0 0019-19zm-36 0a17 17 0 1117 17 17.019 17.019 0 01-17-17z"/><path d="M47 32a15 15 0 10-15 15 15.017 15.017 0 0015-15zm-24 0a9 9 0 119 9 9.01 9.01 0 01-9-9z"/><path d="M39 32a7 7 0 10-7 7 7.008 7.008 0 007-7zm-10 5v-2h4v-2h-2a2 2 0 01-2-2v-2a2 2 0 012-2v-1h2v1h2v2h-4v2h2a2 2 0 012 2v2a2 2 0 01-2 2v1h-2v-1zM9.5 7.309L9 5.764l-.5 1.545A1 1 0 017.547 8H5.923l1.314.955a1 1 0 01.363 1.117l-.5 1.546 1.314-.955a1 1 0 011.176 0l1.314.955-.5-1.546a1 1 0 01.363-1.117L12.077 8h-1.624a1 1 0 01-.953-.691zM53.6 10.072l-.5 1.546 1.314-.955a1 1 0 011.176 0l1.314.955-.5-1.546a1 1 0 01.363-1.117L58.077 8h-1.624a1 1 0 01-.951-.691L55 5.764l-.5 1.545a1 1 0 01-.953.691h-1.624l1.314.955a1 1 0 01.363 1.117zM12.077 55h-1.624a1 1 0 01-.951-.691L9 52.764l-.5 1.545a1 1 0 01-.953.691H5.923l1.314.955a1 1 0 01.363 1.117l-.5 1.546 1.314-.955a1 1 0 011.176 0l1.314.955-.5-1.546a1 1 0 01.363-1.117zM49.43 43.78l-.03-.03a21.383 21.383 0 01-5.65 5.65c.01.01.02.03.04.04l7.06 7.06a4 4 0 105.65-5.65zM60 31v-2h-2v2h-2v2h2v2h2v-2h2v-2zM6 35v-2h2v-2H6v-2H4v2H2v2h2v2zM31 8h2V6h2V4h-2V2h-2v2h-2v2h2zM33 56h-2v2h-2v2h2v2h2v-2h2v-2h-2z"/></svg>