<svg height="512" viewBox="0 0 512.004 512.004" fill="#ffffff" width="512" xmlns="http://www.w3.org/2000/svg"><path d="M442.513 106.978C397.701 62.166 338.12 37.487 274.746 37.487a237.319 237.319 0 00-51.691 5.708l-6.793-25.492c-1.707-6.372-5.953-11.807-11.648-14.91-5.53-3.015-11.882-3.61-17.885-1.681a289.34 289.34 0 00-46.527 19.595c-7.485-4.069-16.346-4.185-23.783.078-43.531 24.388-71.244 52.102-95.63 95.63-4.266 7.438-4.149 16.3-.08 23.786a289.577 289.577 0 00-19.595 46.526v.001c-1.93 6.003-1.333 12.355 1.681 17.886 3.104 5.695 8.538 9.94 14.922 11.651l25.479 6.789a237.4 237.4 0 00-5.708 51.691c0 63.374 24.679 122.955 69.491 167.767 44.813 44.813 104.394 69.492 167.768 69.492s122.955-24.68 167.767-69.492c44.813-44.812 69.492-104.393 69.492-167.767s-24.681-122.954-69.493-167.767zm-253.722 24.431a168.489 168.489 0 00-32.196 25.185 168.497 168.497 0 00-25.086 32.029l-.099.168c-8.53 14.775-18.093 20.837-31.6 19.389 9.363-24.498 23.965-47.05 42.643-65.728 18.677-18.678 41.228-33.279 65.728-42.643 1.447 13.506-4.615 23.069-19.39 31.6zM20.355 195.043c-.384-.704-.45-1.422-.203-2.192a269.277 269.277 0 0121.087-48.556 10 10 0 00-1.664-11.939c-1.944-1.944-2.479-4.188-1.432-6.001l.065-.115c22.741-40.607 47.422-65.29 88.031-88.032l.114-.064c1.815-1.048 4.059-.512 6.002 1.432a9.996 9.996 0 0011.939 1.665 269.227 269.227 0 0148.556-21.087c.77-.248 1.487-.183 2.193.202.91.496 1.603 1.416 1.896 2.512l14.546 54.586c-31.146 10-59.889 27.57-83.176 50.857-23.287 23.288-40.857 52.03-50.856 83.176l-54.575-14.542c-1.107-.299-2.027-.991-2.523-1.902zm254.391 296.961c-119.797 0-217.259-97.462-217.259-217.259 0-15.649 1.701-31.261 5.05-46.537l11.748 3.13c1.297.348 2.624.513 3.956.513 4.463 0 8.959-1.867 12.436-4.959 4.463.965 8.761 1.458 12.883 1.458 18.642 0 33.767-9.857 45.119-29.471a148.446 148.446 0 0122.058-28.143 148.494 148.494 0 0128.142-22.058c23.953-13.862 33.345-33.354 28.013-58.006 4.013-4.512 5.961-10.743 4.452-16.374l-3.134-11.762a217.387 217.387 0 0146.537-5.05c119.797 0 217.259 97.462 217.259 217.259s-97.463 217.259-217.26 217.259z"/><path d="M82.786 163.817c2.74-4.795 1.074-10.903-3.721-13.644S68.16 149.1 65.42 153.894l-.004.007c-2.74 4.796-1.072 10.9 3.723 13.641a10.004 10.004 0 0013.647-3.725zM158.87 84.101c1.789 0 3.6-.479 5.234-1.485 4.704-2.895 6.17-9.054 3.275-13.758s-9.055-6.172-13.758-3.275l-.006.004c-4.704 2.895-6.167 9.052-3.272 13.756a9.993 9.993 0 008.527 4.758zM274.746 154.745c-66.168 0-120 53.832-120 120 0 47.683 28.236 90.851 71.934 109.975a9.967 9.967 0 004.004.842 10.007 10.007 0 009.167-5.993c2.214-5.06-.092-10.957-5.152-13.171-36.42-15.939-59.953-51.915-59.953-91.652 0-55.141 44.86-100 100-100s100 44.859 100 100c0 39.735-23.53 75.71-59.946 91.649-5.06 2.215-7.366 8.111-5.151 13.171s8.109 7.364 13.171 5.151c43.694-19.125 71.927-62.292 71.927-109.972-.001-66.168-53.833-120-120.001-120z"/><path d="M284.746 204.747c0-5.522-4.477-10-10-10h-.007c-5.523 0-9.997 4.478-9.997 10s4.481 10 10.004 10 10-4.478 10-10zM235.556 205.045l-.006.003c-5.015 2.314-7.2 8.255-4.886 13.27a10.003 10.003 0 009.087 5.811 9.973 9.973 0 004.186-.923c5.015-2.314 7.204-8.256 4.889-13.271-2.314-5.015-8.258-7.204-13.27-4.89zM219.672 231.426c-4.595-3.063-10.803-1.822-13.868 2.773l-.003.006c-3.064 4.595-1.82 10.801 2.775 13.864a9.942 9.942 0 005.536 1.68 9.992 9.992 0 008.333-4.456c3.065-4.594 1.823-10.803-2.773-13.867zM214.747 274.746c0-5.522-4.477-10-10-10s-10 4.478-10 10v.007c0 5.522 4.477 9.997 10 9.997s10-4.482 10-10.004zM205.185 314.224a9.994 9.994 0 008.948 5.527c1.503 0 3.03-.341 4.466-1.06 4.94-2.47 6.94-8.479 4.471-13.419-2.47-4.939-8.476-6.942-13.417-4.473-4.94 2.47-6.942 8.477-4.472 13.417zM244.988 326.849c-4.705-2.895-10.863-1.429-13.758 3.275s-1.428 10.863 3.275 13.758l.006.004a9.995 9.995 0 0013.755-3.278c2.895-4.703 1.425-10.864-3.278-13.759zM274.753 354.744c5.523 0 9.997-4.478 9.997-10s-4.481-10-10.004-10-10 4.478-10 10 4.477 10 10 10zM314.986 343.882l.006-.004c4.704-2.895 6.167-9.052 3.272-13.756-2.895-4.703-9.056-6.167-13.761-3.273-4.704 2.895-6.17 9.054-3.275 13.758a9.994 9.994 0 0013.758 3.275zM340.407 301.104c-4.77-2.781-10.895-1.169-13.678 3.602s-1.171 10.895 3.599 13.677a9.995 9.995 0 0013.676-3.599l.003-.006c2.783-4.771 1.17-10.892-3.6-13.674zM354.744 274.746v-.008c0-5.522-4.477-9.996-10-9.996s-10 4.481-10 10.004 4.477 10 10 10 10-4.478 10-10zM343.683 234.193c-3.063-4.595-9.269-5.836-13.866-2.771-4.595 3.063-5.835 9.275-2.772 13.87a9.989 9.989 0 008.33 4.454 9.952 9.952 0 005.538-1.681c4.595-3.063 5.837-9.272 2.773-13.867zM309.735 224.127a9.993 9.993 0 008.526-4.76c2.895-4.704 1.428-10.863-3.275-13.758l-.006-.004c-4.703-2.895-10.86-1.426-13.755 3.277-2.895 4.704-1.425 10.865 3.279 13.76a9.947 9.947 0 005.231 1.485zM234.746 274.746c0 22.056 17.944 40 40 40s40-17.944 40-40c0-22.057-17.944-40.001-40-40.001s-40 17.944-40 40.001zm40-20.001c11.028 0 20 8.973 20 20.001s-8.972 20-20 20-20-8.972-20-20 8.972-20.001 20-20.001zM260.432 130.909a9.995 9.995 0 0013.66-3.66l18.628-32.265c2.762-4.783 1.123-10.898-3.66-13.66-4.781-2.76-10.898-1.123-13.66 3.66l-18.628 32.265c-2.762 4.783-1.124 10.898 3.66 13.66zM122.239 294.061a9.995 9.995 0 008.669-5.002c2.762-4.783 1.123-10.898-3.66-13.66l-32.265-18.628c-4.781-2.761-10.898-1.122-13.66 3.66-2.762 4.783-1.123 10.898 3.66 13.66l32.265 18.628a9.96 9.96 0 004.991 1.342zM147.336 349.06H110.08c-5.523 0-10 4.478-10 10s4.477 10 10 10h37.256c5.523 0 10-4.478 10-10s-4.477-10-10-10zM201.564 402.808l-32.265 18.628c-4.783 2.761-6.422 8.877-3.66 13.66a9.995 9.995 0 0013.66 3.66l32.265-18.628c4.783-2.761 6.422-8.877 3.66-13.66s-8.878-6.422-13.66-3.66zM289.06 418.583c-4.781-2.76-10.898-1.122-13.66 3.66l-18.628 32.265c-2.762 4.783-1.123 10.898 3.66 13.66a9.995 9.995 0 0013.66-3.66l18.628-32.265c2.761-4.783 1.123-10.899-3.66-13.66zM359.06 392.155c-5.523 0-10 4.478-10 10v37.256c0 5.522 4.477 10 10 10s10-4.478 10-10v-37.256c0-5.523-4.477-10-10-10zM420.129 337.928c-2.762-4.782-8.877-6.423-13.66-3.66-4.783 2.762-6.422 8.877-3.66 13.66l18.628 32.265a9.995 9.995 0 0013.66 3.66c4.783-2.762 6.422-8.877 3.66-13.66zM464.507 275.399l-32.265-18.627c-4.784-2.76-10.899-1.123-13.661 3.66-2.761 4.783-1.122 10.899 3.661 13.66l32.265 18.627a9.997 9.997 0 0013.661-3.66c2.761-4.783 1.122-10.899-3.661-13.66zM439.411 200.431c5.523 0 10-4.478 10-10s-4.477-10-10-10h-37.256c-5.523 0-10 4.478-10 10s4.477 10 10 10zM342.937 148.024a9.96 9.96 0 004.991-1.342l32.265-18.628c4.783-2.761 6.422-8.877 3.66-13.66s-8.878-6.422-13.66-3.66l-32.265 18.628c-4.783 2.761-6.422 8.877-3.66 13.66a9.995 9.995 0 008.669 5.002zM274.753 394.745c5.523 0 10-4.478 10-10s-4.477-10-10-10h-.007c-5.523 0-9.996 4.478-9.996 10s4.48 10 10.003 10z"/></svg>