<svg height="512"  fill="#ffffff" viewBox="0 0 64 64" width="512" xmlns="http://www.w3.org/2000/svg"><path d="M57 25h-5.52l-7.1-8.88A3.012 3.012 0 0042.04 15H40v-2a1.033 1.033 0 00-.29-.71l-2-2-1.42 1.42 1.71 1.7V15h-8.96a3.021 3.021 0 00-2.46 1.28L20.48 25H18a2.006 2.006 0 00-2 2v5H7a5 5 0 00-5 5v20a5 5 0 005 5h10a5 5 0 005-5V43.31A5.992 5.992 0 0032.91 41h12.18a5.993 5.993 0 0011.82 0H60a2.006 2.006 0 002-2v-9a5 5 0 00-5-5zm-11.28-4l3.2 4H40v-4zM20 57a3.009 3.009 0 01-3 3H7a3.009 3.009 0 01-3-3V37a3.009 3.009 0 013-3h10a3.009 3.009 0 013 3zm7-13a4 4 0 114-4 4 4 0 01-4 4zm11-5h-5.09a6 6 0 00-10.94-2.27A5 5 0 0018 32.1V27h2.48a2.024 2.024 0 001.64-.85l6.09-8.72a1.043 1.043 0 01.83-.43h13a1.022 1.022 0 01.78.37l1.3 1.63H30a1 1 0 00-.83.45l-4 6a.963.963 0 00-.05 1.02.984.984 0 00.88.53h12zm0-14H27.87l2.67-4H38zm13 19a4 4 0 114-4 4 4 0 01-4 4zm9-5h-3.09a5.993 5.993 0 00-11.82 0H40V27h17a3.01 3.01 0 012.82 2H57a1 1 0 00-1 1v4a1 1 0 001 1h3zm0-6h-2v-2h2z"/><path d="M42 29h4v2h-4zM26 29h4v2h-4zM26 39h2v2h-2zM50 39h2v2h-2zM10 36h4v2h-4zM6 36h2v2H6zM10 56h4v2h-4zM11 50h2v2h-2zM8.464 47.464l1.414 1.414a3.006 3.006 0 014.244 0l1.414-1.414a5.008 5.008 0 00-7.072 0z"/><path d="M5.636 44.636L7.05 46.05a7 7 0 019.9 0l1.414-1.414a9 9 0 00-12.728 0zM35 11a2 2 0 012-2V7a4 4 0 00-4 4z"/><path d="M37 5V3a8.009 8.009 0 00-8 8h2a6.006 6.006 0 016-6zM13 9h11V7H12a1 1 0 00-1 1v22h2zM7 7h2v2H7zM7 11h2v2H7zM7 15h2v2H7zM7 19h2v2H7zM7 23h2v2H7zM7 27h2v2H7zM11 3h2v2h-2zM15 3h2v2h-2zM19 3h2v2h-2z"/></svg>