<svg height="512pt" viewBox="-74 0 512 512.001"  fill="#ffffff" width="512pt" xmlns="http://www.w3.org/2000/svg"><path d="M254.95 256.59l-.02-.508v-13.469c0-20.175-11.243-37.715-28.098-46.437 8.172-9.903 13.09-22.59 13.09-36.403 0-31.574-25.688-57.257-57.258-57.257-31.574 0-57.262 25.683-57.262 57.257 0 13.782 4.895 26.442 13.035 36.332-16.93 8.704-28.234 26.286-28.234 46.508v12.805l-.043 1.172c-.02.473-.004.941.043 1.406v29.617c0 13.297 10.82 24.114 24.113 24.114a24.48 24.48 0 004.032-.336v83.836c0 5.543 4.492 10.035 10.039 10.035h68.355c5.543 0 10.04-4.492 10.04-10.035V311.39c1.304.222 2.644.336 4.007.336h.027c13.297 0 24.11-10.817 24.11-24.114v-29.906c.031-.371.035-.746.023-1.117zm-72.286-134c20.504 0 37.184 16.68 37.184 37.183 0 20.504-16.684 37.184-37.184 37.184-20.504 0-37.187-16.68-37.187-37.184 0-20.503 16.683-37.183 37.187-37.183zm-48.348 169.062a4.044 4.044 0 01-4.035-4.039l.051-30.355c.004-.348-.016-.7-.05-1.047v-.398l.562-14.594c.469-12.211 7.738-23.215 18.52-28.04a31.728 31.728 0 017.491-2.296 56.934 56.934 0 0025.81 6.152c9.253 0 18.003-2.21 25.75-6.125a31.86 31.86 0 017.335 2.27c10.777 4.824 18.047 15.832 18.52 28.039l.57 14.886c-.043.383-.063.77-.063 1.153l.055 22.617v7.738a4.044 4.044 0 01-4.027 4.04 4.044 4.044 0 01-4.024-4.04V258.06c0-5.543-4.492-10.04-10.035-10.04-5.547 0-10.039 4.497-10.039 10.04v28.836c-.008.117-.016.23-.02.347H158.43V258.06c0-5.543-4.493-10.04-10.035-10.04-5.547 0-10.04 4.497-10.04 10.04v29.554a4.047 4.047 0 01-4.039 4.04zm58.286 93.536V369.69c0-5.543-4.493-10.039-10.04-10.039-5.542 0-10.035 4.496-10.035 10.04v15.496h-14.105V307.32h48.285v77.868zm0 0M202.02 468.313l-9.415 9.414v-36.97c0-5.542-4.496-10.038-10.039-10.038-5.543 0-10.039 4.496-10.039 10.039V478.5l-9.136-9.898c-3.762-4.07-10.114-4.329-14.184-.567-4.074 3.762-4.328 10.11-.566 14.184l24.507 26.554a10.018 10.018 0 007.38 3.227c.34 0 .679-.016 1.019-.05a10.048 10.048 0 008.117-2.887l26.55-26.555c3.919-3.918 3.919-10.274 0-14.195-3.921-3.918-10.276-3.918-14.194 0zm0 0M163.113 43.688l9.414-9.418v36.972c0 5.543 4.496 10.04 10.04 10.04 5.542 0 10.038-4.497 10.038-10.04V33.496l9.137 9.899a10.001 10.001 0 007.38 3.23 10 10 0 006.804-2.66c4.074-3.762 4.328-10.113.566-14.184l-24.508-26.55a10.019 10.019 0 00-8.398-3.18 10.03 10.03 0 00-8.117 2.89l-26.551 26.551c-3.922 3.918-3.922 10.274 0 14.196 3.918 3.917 10.273 3.917 14.195 0zm0 0M36.59 287.7c2.566 0 5.137-.981 7.097-2.938 3.918-3.922 3.918-10.278 0-14.196l-9.417-9.418h36.972c5.543 0 10.04-4.492 10.04-10.035 0-5.547-4.497-10.039-10.04-10.039H33.5l9.898-9.136c4.075-3.762 4.329-10.11.567-14.184-3.762-4.074-10.11-4.328-14.184-.566l-26.55 24.507a10.019 10.019 0 00-3.18 8.399 10.03 10.03 0 002.89 8.117l26.551 26.55a10.015 10.015 0 007.098 2.938zm0 0M361.402 244.016l-26.55-26.551c-3.922-3.922-10.278-3.922-14.196 0-3.922 3.918-3.922 10.273 0 14.195l9.414 9.414h-36.972c-5.543 0-10.035 4.492-10.035 10.04 0 5.542 4.492 10.034 10.035 10.034h37.746l-9.899 9.137c-4.074 3.762-4.328 10.113-.57 14.188a10.024 10.024 0 007.379 3.226 10.01 10.01 0 006.808-2.66l26.551-24.508a10.015 10.015 0 003.176-8.398 10.04 10.04 0 00-2.887-8.117zm0 0M293.668 134.516c2.57 0 5.14-.98 7.098-2.942l26.687-26.687-.535 13.46c-.223 5.54 4.086 10.208 9.625 10.43.14.004.273.008.41.008 5.36 0 9.805-4.234 10.024-9.637l1.441-36.101a10.028 10.028 0 00-3.691-8.192 10.05 10.05 0 00-7.782-3.695h-37.547c-5.546 0-10.039 4.496-10.039 10.04s4.493 10.038 10.04 10.038h13.316l-26.145 26.14c-3.918 3.923-3.918 10.278 0 14.196a10.003 10.003 0 007.098 2.942zm0 0M65.191 340.203l-26.687 26.688.535-13.461c.223-5.54-4.09-10.207-9.629-10.43-5.531-.207-10.207 4.09-10.43 9.629l-1.445 36.105a10.034 10.034 0 003.692 8.184c1.875 2.3 4.714 3.7 7.785 3.7h37.547c5.543 0 10.039-4.497 10.039-10.04s-4.496-10.035-10.04-10.035H53.243l26.145-26.145c3.918-3.921 3.918-10.277 0-14.195a10.034 10.034 0 00-14.196 0zm0 0M337.668 343.305c-5.543 0-10.04 4.496-10.04 10.039v13.316l-26.14-26.144c-3.922-3.918-10.277-3.918-14.195 0-3.922 3.921-3.922 10.277 0 14.195l26.687 26.687-13.46-.535c-5.528-.183-10.211 4.09-10.43 9.63-.223 5.538 4.086 10.206 9.629 10.429l36.101 1.445a10.026 10.026 0 008.184-3.688 10.05 10.05 0 003.7-7.788v-37.547c.003-5.543-4.493-10.04-10.036-10.04zm0 0M28.29 130.543c5.542 0 10.038-4.492 10.038-10.035V107.19l26.14 26.141a10.01 10.01 0 007.098 2.941c2.57 0 5.141-.98 7.098-2.941 3.922-3.918 3.922-10.273 0-14.195L51.977 92.449l13.46.535c.137.008.27.012.407.012 5.36 0 9.808-4.234 10.023-9.64.223-5.536-4.09-10.208-9.629-10.43l-36.105-1.442a10.041 10.041 0 00-8.172 3.68 10.039 10.039 0 00-3.711 7.793v37.547c.004 5.547 4.496 10.039 10.04 10.039zm0 0"/><path d="M185.68 321.04l-.243-.071c-5.308-1.602-10.906 1.402-12.507 6.71-1.598 5.31 1.406 10.907 6.715 12.509l.242.074a10.1 10.1 0 002.898.43c4.313 0 8.3-2.805 9.61-7.145 1.597-5.309-1.407-10.906-6.715-12.508zm0 0"/></svg>