<svg xmlns="http://www.w3.org/2000/svg" fill="#ffffff" viewBox="0 0 512 512"><path d="M295.048 232.897c-3.303-4.427-9.568-5.338-13.995-2.034-7.179 5.356-15.724 8.188-24.711 8.188-8.905 0-17.39-2.789-24.538-8.066-4.443-3.28-10.704-2.338-13.984 2.106-3.28 4.443-2.337 10.704 2.106 13.984 10.613 7.834 23.205 11.975 36.416 11.975 13.33 0 26.011-4.204 36.672-12.158 4.426-3.303 5.337-9.568 2.034-13.995z"/><path d="M479.941 500.916l-6.082-55.782c-4.106-37.662-31.828-67.94-68.983-75.343 0 0-5.947-1.285-6.741-1.343l-67.653-13.48c-11.165-2.225-19.268-12.101-19.268-23.485v-16.286l41.877-24.012c.182-.104.361-.215.537-.331 16.129-10.651 26.725-29.645 28.343-50.807.02-.253.029-.508.029-.762v-.382h2.957c14.42 0 26.152-11.732 26.152-26.152v-25.913c0-7.178-2.908-13.689-7.607-18.419A31.175 31.175 0 00410 149.343V10c0-5.523-4.477-10-10-10H153.82c-24.578 0-44.574 19.996-44.574 44.574v115.873c0 2.129.67 4.099 1.804 5.72-6.174 4.788-10.159 12.271-10.159 20.67v25.913c0 14.42 11.732 26.152 26.152 26.152H130v.382c0 .254.01.509.029.762 1.625 21.252 12.143 40.246 28.135 50.807.179.118.362.23.548.337l42.101 24.068v16.224c0 11.384-8.103 21.26-19.268 23.485l-67.636 13.476c-.824.057-6.773 1.35-6.773 1.35-37.145 7.4-64.866 37.67-68.98 75.322l-6.097 55.798a9.997 9.997 0 002.496 7.762A9.995 9.995 0 0042 512h428a9.997 9.997 0 009.941-11.084zm-88.832-288.165a6.159 6.159 0 01-6.152 6.152H382v-38.218h2.957a6.159 6.159 0 016.152 6.152v25.914zM382 160.182v-63.87a81.48 81.48 0 008-7.952v60.983c0 5.091-3.372 9.409-8 10.839zm-252 58.722h-2.956v-.001a6.159 6.159 0 01-6.152-6.152v-25.913a6.159 6.159 0 016.152-6.152H130v38.218zm5.228-68.457h-5.981V44.574h-.001C129.246 31.024 140.27 20 153.82 20H390v15.25C390 68.748 362.748 96 329.25 96H176.093c-5.523 0-10 4.477-10 10v13.582c0 17.019-13.846 30.865-30.865 30.865zm33.707 123.551c-10.647-7.161-17.701-20.24-18.935-35.11v-70.636c20.864-6.345 36.093-25.76 36.093-48.67V116H329.25a80.251 80.251 0 0032.75-6.966v129.854c-1.23 14.784-8.362 27.866-19.147 35.113l-69.292 39.732a9.002 9.002 0 00-.537.331c-10.659 7.039-23.387 7.039-34.046 0a9.04 9.04 0 00-.548-.337l-69.495-39.729zm122.231 70.924v27.75l-18.495-14.745 18.495-13.005zm-25.413-6.58L256 345.2l-9.753-6.858c3.225.648 6.489.979 9.754.979 3.264 0 6.528-.332 9.752-.979zm-26.424 19.584l-18.495 14.745v-27.749l18.495 13.004zM81.666 492H53.152l4.886-44.712c1.931-17.676 10.641-33.225 23.628-43.952V492zm20.001 0v-98.399c0-.529-.053-1.044-.132-1.551a67.226 67.226 0 017.501-2.2l14.154 29.136-13.478 19.197a10 10 0 00.959 12.66L150.059 492h-48.392zm236.862-78.391c-5.523 0-10 4.477-10 10V492H183.471v-68.391c0-5.523-4.477-10-10-10s-10 4.477-10 10v53.479l-32.67-34.136 12.141-17.292a10.003 10.003 0 00.811-10.116l-14.462-29.771 56.163-11.19a43.657 43.657 0 0015.38-6.291v25.142a9.998 9.998 0 009.999 10c2.224 0 4.43-.741 6.235-2.181L256 370.214l38.932 31.039a10 10 0 0016.234-7.819v-25.16a43.65 43.65 0 0015.408 6.309l56.138 11.185-14.465 29.776a10.003 10.003 0 00.811 10.116l12.141 17.292-32.67 34.136v-53.479c0-5.523-4.477-10-10-10zm71.805-20.007V492h-48.392l39.388-41.156a9.999 9.999 0 00.959-12.66l-13.478-19.197 14.156-29.141a67.052 67.052 0 017.5 2.198c-.08.509-.133 1.027-.133 1.558zm20 98.398v-88.679c12.999 10.731 21.716 26.291 23.644 43.981L458.851 492h-28.517z"/><path d="M173.471 383.434c-5.523 0-10 4.477-10 10v.167c0 5.523 4.477 10 10 10s10-4.477 10-10v-.167c0-5.523-4.477-10-10-10zM338.529 383.434c-5.523 0-10 4.477-10 10v.167c0 5.523 4.477 10 10 10s10-4.477 10-10v-.167c0-5.523-4.477-10-10-10z"/></svg>