<svg xmlns="http://www.w3.org/2000/svg"  fill="#ffffff" viewBox="0 0 1000 1000"><path d="M228.9 677.3h269.7c5.6-14.5 12.1-28.4 19.9-41.7H228.9v41.7zm375.3-291.9H229v41.7h375.2v-41.7zM103.9 948.3c-23 0-41.7-18.7-41.7-41.7V93.5c0-23 18.7-41.7 41.7-41.7h646.2c23.1 0 41.7 18.7 41.7 41.7v397.2c14.1 1 28 2.8 41.7 5.8v-403c0-46-37.3-83.4-83.4-83.4H103.9c-46.1 0-83.4 37.3-83.4 83.4v813.1c0 46.1 37.3 83.4 83.4 83.4H567c-13.1-12.7-24.9-26.7-35.2-41.7H103.9zm500.3-406.1v-31.7H229v41.7h361.9c4.3-3.5 8.7-6.9 13.3-10zM770.7 573c-114.9 0-208.3 93.2-208.3 208.7 0 115.2 93.3 208.3 208.3 208.3 115.4 0 208.8-93.3 208.8-208.3 0-115.5-93.4-208.7-208.8-208.7zm.1 375.3c-91.9 0-166.6-74.6-166.6-166.7 0-92.4 74.6-167 166.6-167 92.3 0 167 74.5 167 167 0 92-74.7 166.7-167 166.7zM604.2 260.4H229V302h375.2v-41.6zm187.6 416.9h-41.7v125.1h125.1v-41.7h-83.4v-83.4z"/></svg>