<svg height="512" viewBox="0 0 64 64" fill="#ffffff" width="512" xmlns="http://www.w3.org/2000/svg"><path d="M60 0H18c-1.103 0-2 .897-2 2v14h2V2h8v4h-5a1 1 0 00-1 1v9h2V8h4v2c0 1.103.897 2 2 2h22c1.103 0 2-.897 2-2V8h4v24h2V7a1 1 0 00-1-1h-5V2h8v60H18v-6h-2v7a1 1 0 001 1h43c1.103 0 2-.897 2-2V2c0-1.103-.897-2-2-2zM50 10H28V2h22z"/><path d="M58 34h-2v14H46a1 1 0 00-1 1v9H22v-2h-2v3a1 1 0 001 1h25a1.04 1.04 0 00.167-.014l.016-.003.019-.004c.009-.002.018-.003.026-.006l.008-.002c.027-.007.054-.014.081-.023l.003-.001a.836.836 0 00.083-.032l.002-.001a.852.852 0 00.08-.04l.002-.001.037-.022.015-.01.024-.016.012-.009.025-.018.023-.018.014-.011.036-.031 11-10a.712.712 0 00.048-.047l.013-.014a.8.8 0 00.038-.044l.007-.008a.88.88 0 00.039-.052l.011-.016.028-.044.008-.014a.619.619 0 00.03-.057l.008-.016.021-.047.007-.017.022-.062.003-.009.016-.057.004-.015a.995.995 0 00.021-.133l.001-.016.003-.056v-.013V34zM47 50h7.413l-4.856 4.415L47 56.739zM30 5h2v2h-2zM46 5h2v2h-2zM51 16H28a1 1 0 00-1 1v4h2v-3h21v14H35v2h16a1 1 0 001-1V17a1 1 0 00-1-1zM34 38h11v2H34z"/><path d="M47 38h6v2h-6zM31 44h11v2H31zM44 44h9v2h-9zM26 50h17v2H26zM34 5h10v2H34zM18 54a.995.995 0 00.6-.2l4.413-3.31a24.911 24.911 0 009.62-15.655l1.352-7.661a1 1 0 00-.514-1.056l-15-8a.999.999 0 00-.941 0l-15 8a1 1 0 00-.514 1.056l1.341 7.607a24.93 24.93 0 009.496 15.564l4.543 3.452A.999.999 0 0018 54zM5.326 34.433l-1.215-6.892L18 20.133l13.889 7.408-1.226 6.946a22.92 22.92 0 01-8.85 14.403l-3.809 2.857-3.942-2.995a22.935 22.935 0 01-8.736-14.319z"/><path d="M21.835 46.744a18.537 18.537 0 007.157-11.647l.992-5.618a1 1 0 00-.514-1.056l-5.002-2.668-.941 1.765 4.362 2.327-.866 4.903a16.545 16.545 0 01-6.387 10.396l-2.632 1.974-2.73-2.075a16.551 16.551 0 01-6.305-10.334l-.859-4.865 4.361-2.326-.941-1.765-5.001 2.667a1 1 0 00-.514 1.056l.983 5.578a18.552 18.552 0 007.065 11.58l3.332 2.531a.998.998 0 001.205.004z"/><path d="M17.999 24.572l3.531 1.883.941-1.765-4.002-2.134a.999.999 0 00-.941 0l-3.999 2.133.941 1.765zM16.962 40H17a1 1 0 00.752-.341l7-8-1.505-1.317-6.188 7.072L14.8 34.4l-1.6 1.2 3 4c.181.241.461.388.762.4zM17 28h2v2h-2zM17 42h2v2h-2z"/></svg>