<svg xmlns="http://www.w3.org/2000/svg" viewBox="0 0 512.005 512.005" fill="#ffffff" width="512" height="512"><path d="M288.336 214.002c0-17.829-14.505-32.333-32.333-32.333s-32.333 14.505-32.333 32.333 14.505 32.333 32.333 32.333 32.333-14.505 32.333-32.333zm-44.667 0c0-6.801 5.533-12.333 12.333-12.333s12.333 5.533 12.333 12.333-5.533 12.333-12.333 12.333-12.333-5.533-12.333-12.333z"/><path d="M511.227 360.431l-16.436-39.251 8.935-13.615a46.86 46.86 0 005.995-38.161l-8.306-30.114a55.888 55.888 0 00-23.453-32.038 9.988 9.988 0 00-6.212-1.573c-4.701-98.475-76.284-182.353-173.683-201.583-5.415-1.071-10.678 2.456-11.748 7.874-1.07 5.418 2.455 10.678 7.874 11.748 91.441 18.054 157.81 98.921 157.81 192.284 0 2.766-.08 5.548-.195 8.32l-20.879 11.153a178.268 178.268 0 001.074-19.473c0-10.857-.995-21.485-2.886-31.804a9.831 9.831 0 00-.161-.838c-15.349-81.504-87.057-143.358-172.953-143.358-85.932 0-157.665 61.907-172.973 143.462-.052.233-.1.466-.135.703a176.286 176.286 0 00-2.892 31.835c0 6.507.365 13.019 1.075 19.473l-20.89-11.158a200.303 200.303 0 01-.185-8.315c0-93.483 66.47-174.37 158.051-192.331 5.419-1.063 8.951-6.318 7.888-11.738a9.997 9.997 0 00-11.738-7.888C116.653 23.177 44.958 107.079 40.255 205.68a9.985 9.985 0 00-6.211 1.573 55.888 55.888 0 00-23.453 32.038l-8.306 30.114a46.855 46.855 0 005.995 38.161l8.935 13.615-16.437 39.25c-2.133 5.094.268 10.953 5.362 13.086a9.956 9.956 0 003.858.779c3.91 0 7.624-2.309 9.229-6.141l15.294-36.525 43.494 9.175L40.273 499.69c-1.276 5.374 2.045 10.765 7.418 12.041a10 10 0 002.319.272c4.526 0 8.629-3.095 9.721-7.69l34.497-145.222c40.772 46.018 99.655 72.91 161.774 72.91 34.396 0 68.624-8.287 98.983-23.966 23.66-12.219 45.076-28.951 62.793-48.935l34.494 145.212c1.092 4.596 5.194 7.69 9.721 7.69.765 0 1.542-.088 2.319-.272 5.374-1.276 8.695-6.667 7.418-12.041l-37.74-158.883 43.494-9.175 15.294 36.525a10.003 10.003 0 009.229 6.141 9.978 9.978 0 003.858-.779c5.094-2.134 7.494-7.993 5.362-13.087zM468.725 237.96a10.005 10.005 0 003.751-3.493l2.315-3.677a35.918 35.918 0 017.343 13.819l8.306 30.115a26.855 26.855 0 01-3.435 21.87l-9.589 14.612-52.199 11.012-9.244-9.502c-6.987-7.183-10.835-16.656-10.835-26.677V261.92a6.495 6.495 0 014.874-6.29l2.354-.608c7.094 4.132 16.058 4.465 23.513.482l32.846-17.544zm-343.049 16.169h59.39c18.161 0 32.937 14.775 32.937 32.937v80.29c-37.935-9.432-71.137-32.874-93.004-66.654a58.499 58.499 0 001.869-14.662v-24.12a26.468 26.468 0 00-1.192-7.791zm59.39-20h-84.019a158.207 158.207 0 01-1.045-18.127c0-7.541.549-14.955 1.588-22.213l101.538-24.499c34.59-8.345 71.158-8.345 105.748 0l101.538 24.498a156.671 156.671 0 011.589 22.214c0 6.059-.358 12.126-1.051 18.127H326.94c-29.189 0-52.937 23.747-52.937 52.937v83.896c-5.928.677-11.932 1.04-18 1.04s-12.072-.363-18-1.04v-83.896c0-29.19-23.748-52.937-52.937-52.937zm108.937 52.936c0-18.161 14.775-32.937 32.937-32.937h59.39a26.44 26.44 0 00-1.191 7.791v24.119c0 5.01.644 9.926 1.869 14.662-21.867 33.781-55.069 57.222-93.005 66.654v-80.289zm-38-227.063c70.771 0 130.677 47.375 149.694 112.074l-92.13-22.229c-37.659-9.085-77.472-9.085-115.128 0l-92.13 22.229c19.017-64.699 78.922-112.074 149.694-112.074zM21.565 274.723l8.306-30.115a35.931 35.931 0 017.343-13.819l2.315 3.677a10.013 10.013 0 003.751 3.493l32.846 17.544c7.455 3.982 16.419 3.65 23.513-.482l2.355.608a6.495 6.495 0 014.874 6.29v24.119c0 10.021-3.848 19.494-10.835 26.677l-9.244 9.502-52.199-11.012L25 296.593a26.855 26.855 0 01-3.435-21.87zm234.438 137.279c-60.6 0-117.808-28.207-154.851-75.866l9.216-9.474a59.22 59.22 0 004.614-5.374c14.59 19.497 33.151 35.914 54.362 47.935 26.296 14.903 56.262 22.78 86.66 22.78 30.402 0 60.373-7.88 86.672-22.787 21.206-12.021 39.762-28.435 54.349-47.928a58.94 58.94 0 004.614 5.375l9.224 9.482c-37.003 47.584-94.515 75.857-154.86 75.857z"/><path d="M256.003 20.002h.245c5.523 0 10-4.477 10-10s-4.477-10-10-10h-.245c-5.523 0-10 4.477-10 10s4.477 10 10 10z"/></svg>