<svg id="telegram" xmlns="http://www.w3.org/2000/svg" width="28" height="28" viewBox="0 0 28 28">
  <g id="Group_3" data-name="Group 3">
    <path id="Path_9" data-name="Path 9" d="M212.565,28H210.5a.794.794,0,1,1,0-1.588h2.065a2.764,2.764,0,0,0,2.761-2.761V4.35a2.764,2.764,0,0,0-2.761-2.761H200.638a.794.794,0,0,1,0-1.588h11.927a4.354,4.354,0,0,1,4.35,4.35v19.3A4.354,4.354,0,0,1,212.565,28Z" transform="translate(-188.915)" fill="#fdfdfd"/>
    <path id="Path_10" data-name="Path 10" d="M15.843,28H4.35A4.355,4.355,0,0,1,0,23.65V4.35A4.355,4.355,0,0,1,4.35,0H6.137a.794.794,0,1,1,0,1.588H4.35A2.764,2.764,0,0,0,1.588,4.35v19.3A2.764,2.764,0,0,0,4.35,26.412H15.843a.794.794,0,1,1,0,1.588Z" fill="#fdfdfd"/>
  </g>
  <g id="Group_4" data-name="Group 4" transform="translate(4.353 5.748)">
    <path id="Path_12" data-name="Path 12" d="M94.465,121.611h0a1.651,1.651,0,0,1-.983-.323l-.018-.013-4.287-3.335L87.4,119.632a1.5,1.5,0,0,1-2.492-.61c0-.011-.007-.022-.01-.034l-1.035-3.874-3.271-.966a1.385,1.385,0,0,1-.111-2.618l16.192-6.31a1.627,1.627,0,0,1,2.184,1.849L96.1,120.286A1.674,1.674,0,0,1,94.465,121.611Zm-.038-1.6a.066.066,0,0,0,.038.012.078.078,0,0,0,.078-.062l2.765-13.217a.029.029,0,0,0-.006-.03.046.046,0,0,0-.03-.018l-.017,0-15.637,6.094,3.127.923a.794.794,0,0,1,.542.557l1.1,4.131,2.186-2.086a.794.794,0,0,1,1.036-.052Z" transform="translate(-79.604 -105.107)" fill="#fdfdfd"/>
    <path id="Path_13" data-name="Path 13" d="M201.6,180.311a6.257,6.257,0,0,0,.945-1.141l-.408-2a.729.729,0,0,1,.248-.706l7.481-6.217a.2.2,0,0,0-.233-.314l-8.8,5.366a.586.586,0,0,0-.27.61Z" transform="translate(-193.943 -166.36)" fill="#fdfdfd"/>
  </g>
</svg>
