<svg xmlns="http://www.w3.org/2000/svg" fill="#ffffff" viewBox="0 0 480.001 480.001"><path d="M435.505.001h-127c-22.361.022-40.482 18.143-40.504 40.504v175.496h-16v-128c0-8.837-7.163-16-16-16h-16c-8.837 0-16 7.163-16 16v128h-16v-96a8 8 0 00-8-8h-104a7.998 7.998 0 00-5.808 2.496l-64 67.504a7.999 7.999 0 00-2.192 5.504v105a8 8 0 002.192 5.496l64 67.504a7.998 7.998 0 005.808 2.496h104a8 8 0 008-8v-96h16v128c0 8.837 7.163 16 16 16h16c8.837 0 16-7.163 16-16v-128h16v175.504c.026 22.357 18.147 40.474 40.504 40.496h127c22.354-.026 40.47-18.142 40.496-40.496v-399C475.979 18.148 457.862.028 435.505.001zm-263.504 352h-92.56l-59.44-62.688v-98.624l59.44-62.688h92.56v224zm32-104h-16v-16h16v16zm32 144h-16v-16h16v16zm0-32h-16v-16h16v16zm0-32h-16v-64h16v64zm0-80h-16v-16h16v16zm0-32h-16v-64h16v64zm0-80h-16v-16h16v16zm0-32h-16v-16h16v16zm32 144h-16v-16h16v16zm32 214.4a24.48 24.48 0 01-16-22.888V40.505a24.48 24.48 0 0116-22.904v444.8zm32 1.6h-16v-448h16v448zm32 0h-16v-448h16v448zm32 0h-16v-448h16v448zm32 0h-16v-448h16v448zm32-24.496a24.482 24.482 0 01-16 22.896v-444.8a24.482 24.482 0 0116 22.896v399.008z"/><path d="M84.001 320.001h16v16h-16zM140.001 320.001h16v16h-16zM84.001 144.001h16v16h-16zM140.001 144.001h16v16h-16zM36.001 192.001h16v16h-16zM36.001 272.001h16v16h-16zM172.001 24.001h-80v-16a8 8 0 00-13.656-5.656l-40 40a8 8 0 000 11.312l40 40a8 8 0 0013.656-5.656v-16h80a8 8 0 008-8v-32a8 8 0 00-8-8zm-8 32h-80a8 8 0 00-8 8v4.688L55.313 48.001l20.688-20.688v4.688a8 8 0 008 8h80v16zM177.657 426.345l-40-40a8 8 0 00-13.656 5.656v16h-80a8 8 0 00-8 8v32a8 8 0 008 8h80v16a8 8 0 0013.656 5.656l40-40a8 8 0 000-11.312zm-37.656 26.344v-4.688a8 8 0 00-8-8h-80v-16h80a8 8 0 008-8v-4.688l20.688 20.688-20.688 20.688zM76.001 216.001h16v16h-16zM124.001 248.001h16v16h-16z"/></svg>