<svg xmlns="http://www.w3.org/2000/svg" width="28" height="28" viewBox="0 0 28 28">
  <g id="viber" transform="translate(-899 -20)">
    <g id="Group_1" data-name="Group 1" transform="translate(899 20)">
      <path id="Path_1" data-name="Path 1" d="M212.565,28H210.5a.794.794,0,1,1,0-1.588h2.065a2.764,2.764,0,0,0,2.761-2.761V4.351a2.764,2.764,0,0,0-2.761-2.761H200.638a.794.794,0,1,1,0-1.588h11.927a4.355,4.355,0,0,1,4.35,4.35v19.3A4.355,4.355,0,0,1,212.565,28Z" transform="translate(-188.915 -0.001)" fill="#fdfdfd"/>
      <path id="Path_2" data-name="Path 2" d="M15.843,28H4.35A4.354,4.354,0,0,1,0,23.651V4.351A4.354,4.354,0,0,1,4.35,0H6.137a.794.794,0,1,1,0,1.588H4.35A2.764,2.764,0,0,0,1.588,4.351v19.3A2.764,2.764,0,0,0,4.35,26.412H15.843a.794.794,0,1,1,0,1.588Z" transform="translate(0 -0.001)" fill="#fdfdfd"/>
    </g>
    <g id="Group_2" data-name="Group 2" transform="translate(903.743 24.202)">
      <path id="Path_4" data-name="Path 4" d="M91.7,96.435a.794.794,0,0,1-.794-.794c0-.353-.033-1.023-.063-1.614-.017-.346-.033-.662-.042-.909a5.509,5.509,0,0,1-2.825-2.171,7.168,7.168,0,0,1-1.094-3.181,17.072,17.072,0,0,1,.276-6.134,5.467,5.467,0,0,1,3.629-4.054,13.975,13.975,0,0,1,4.914-.738c.451,0,.945.011,1.554.035a13.336,13.336,0,0,1,3.171.462,6.06,6.06,0,0,1,3.181,1.745,6,6,0,0,1,1.207,2.425,15.982,15.982,0,0,1,.335,5.6,10.156,10.156,0,0,1-.538,2.757,5.319,5.319,0,0,1-3.9,3.372,20.435,20.435,0,0,1-5.009.614c-.249,0-.5,0-.753-.013l-.034.037-.038.039c-.807.775-2.013,1.787-2.468,2.168l-.173.146A.794.794,0,0,1,91.7,96.435Zm4-18.007a12.48,12.48,0,0,0-4.374.643A3.912,3.912,0,0,0,88.7,82.009a15.522,15.522,0,0,0-.241,5.57,5.624,5.624,0,0,0,.843,2.493,3.957,3.957,0,0,0,2.2,1.606,1.1,1.1,0,0,1,.88,1.1c0,.208.024.677.048,1.174l0,.031c.445-.385.934-.818,1.323-1.19a1.47,1.47,0,0,1,1.176-.539c.257.01.515.015.769.015a18.842,18.842,0,0,0,4.619-.566,3.719,3.719,0,0,0,2.807-2.4,8.679,8.679,0,0,0,.441-2.333,14.272,14.272,0,0,0-.289-5.057,4.455,4.455,0,0,0-.879-1.8,4.669,4.669,0,0,0-2.406-1.248,11.807,11.807,0,0,0-2.8-.4C96.6,78.438,96.129,78.427,95.7,78.427Z" transform="translate(-86.731 -76.839)" fill="#fdfdfd"/>
      <path id="Path_5" data-name="Path 5" d="M171.5,164.038a2.026,2.026,0,0,1-.744,1.288,1.227,1.227,0,0,1-1.377.374c-.417-.167-.825-.357-1.226-.559a11.55,11.55,0,0,1-3.318-2.513,11.36,11.36,0,0,1-2.531-4.2.938.938,0,0,1,.264-1.075,7.706,7.706,0,0,1,.962-.723.622.622,0,0,1,.764.061,5.592,5.592,0,0,1,1.458,1.968.583.583,0,0,1-.168.737c-.125.1-.242.206-.365.308a.67.67,0,0,0-.255.887,4.056,4.056,0,0,0,1.763,2.114,4.488,4.488,0,0,0,.886.407.536.536,0,0,0,.641-.221c.087-.11.171-.223.26-.331a.784.784,0,0,1,1.032-.189c.583.39,1.156.8,1.709,1.226C171.39,163.7,171.438,163.929,171.5,164.038Z" transform="translate(-158.105 -152.169)" fill="#fdfdfd"/>
      <path id="Path_6" data-name="Path 6" d="M246.888,138.589a.4.4,0,0,1-.4-.4A5,5,0,0,0,241.5,133.2a.4.4,0,0,1,0-.794,5.79,5.79,0,0,1,5.783,5.784A.4.4,0,0,1,246.888,138.589Z" transform="translate(-232.663 -129.369)" fill="#fdfdfd"/>
      <path id="Path_7" data-name="Path 7" d="M245.419,163.982a.4.4,0,0,1-.4-.4,3.524,3.524,0,0,0-3.52-3.52.4.4,0,1,1,0-.794,4.319,4.319,0,0,1,4.314,4.314A.4.4,0,0,1,245.419,163.982Z" transform="translate(-232.663 -154.762)" fill="#fdfdfd"/>
      <path id="Path_8" data-name="Path 8" d="M243.951,189.375a.4.4,0,0,1-.4-.4,2.054,2.054,0,0,0-2.051-2.051.4.4,0,0,1,0-.794,2.849,2.849,0,0,1,2.845,2.845A.4.4,0,0,1,243.951,189.375Z" transform="translate(-232.663 -180.155)" fill="#fdfdfd"/>
    </g>
  </g>
</svg>
