<svg xmlns="http://www.w3.org/2000/svg" fill="#ffffff" viewBox="0 0 396.819 396.819"><path d="M352.103 44.679c-59.237-59.401-155.412-59.535-214.813-.298-57.316 57.157-59.741 149.218-5.515 209.314l-11.6 11.6c-9.372-9.373-24.568-9.375-33.941-.003l-.003.003-79.2 79.2c-9.373 9.372-9.375 24.568-.003 33.941l.003.003 11.312 11.312c9.372 9.369 24.564 9.369 33.936 0l79.2-79.2c9.373-9.372 9.375-24.568.003-33.941l-.003-.003 11.6-11.6c62.24 56.247 158.292 51.388 214.539-10.851 54.33-60.119 51.903-152.3-5.515-209.477zM120.175 299.231l-79.2 79.2a8 8 0 01-11.312 0l-11.312-11.32a8 8 0 010-11.304l79.2-79.2a8.185 8.185 0 0111.312 0l11.312 11.32a8 8 0 010 11.304zm220.624-50.904c-53.112 53.11-139.223 53.109-192.333-.003s-53.109-139.223.003-192.333c53.111-53.109 139.219-53.109 192.33 0 53.025 53.148 53.025 139.188 0 192.336z"/><path d="M329.479 67.303l-11.312 11.312c40.545 40.644 40.545 106.436 0 147.08l11.312 11.312c46.796-46.89 46.796-122.814 0-169.704z"/></svg>