<svg version="1.0" xmlns="http://www.w3.org/2000/svg" fill="#ffffff" width="1048" height="1706.667" viewBox="0 0 786 1280"><path d="M362.5.6c-2.7.2-11.7.8-20 1.4-119.7 8.7-227.2 50.1-288.4 111-27.9 27.7-44.2 55.7-51.3 88.3C.7 210.7.5 214.1.5 245c0 28.2.3 34.9 1.8 42.5 1.7 8.5 1.8 28.2 2 386 .1 207.3.5 378.6.9 380.5.6 3.2 3.1 11.5 19.9 64.1l5.9 18.7 36.1 32.3 36 32.4 19.3 9c10.6 4.9 27.5 12.8 37.7 17.4 10.1 4.6 27.2 12.5 37.9 17.4l19.5 9 32.5 4.8c17.9 2.7 45.1 6.7 60.5 8.9 15.4 2.2 32.3 4.7 37.5 5.5 5.2.8 17.3 2.6 26.8 4l17.2 2.6 14.3-2.1c13.5-2 43.1-6.4 88.7-13 32.8-4.8 40.6-6 57-8.5l15.5-2.4 21-9.6c20-9.2 49.2-22.6 78.5-36l13.6-6.1 36.7-32.9 36.7-32.9 4.6-14.1c2.5-7.7 8.5-26.2 13.4-41.1l9-27.1V300.8l2.2-10.2c2.1-9.4 2.3-12.6 2.3-44.6 0-32.5-.1-35.1-2.3-44.9-10.1-44.9-38.8-83.7-87.8-118.7-27.8-19.9-70.1-40.1-111.9-53.7C541.6 15.2 501.4 7.2 450 2.4 435.6 1.1 373.8-.2 362.5.6zm90.5 9.8c112 10.8 205.6 46.4 266.5 101.3 29.2 26.3 48.4 57.3 56.1 90.8 2.4 10.1 2.7 40.1.5 51-3.4 17.5-12.4 39.6-22.5 55.3-38.1 59.4-125.5 108.7-231.1 130.1-42.4 8.6-82 12.4-129.5 12.4-40.6 0-71.1-2.4-107.5-8.4C183 426 92.8 382.8 47.8 329.1c-19.2-23-30.3-44.4-37-71.6-1.9-7.7-2.2-11.8-2.2-28.5 0-20.6 1.1-27.8 6.6-43.5 13.8-40 48.5-78.4 98-108.4 64-38.8 151.6-63.4 244.3-68.5 16.6-.9 79.7.3 95.5 1.8zM776.4 284c-5.6 33-22.1 61.9-52 91.1-28.8 28.1-67.1 51.5-114.4 70.2-16.1 6.4-20.7 7.9-40 13.7-55.4 16.6-111.1 24.3-176.5 24.3-72.5 0-132.2-9.2-194-29.8C98.8 419.9 28.8 360.8 12 295.2c-2-8-4-19.6-3.2-18.8.2.3 1.9 3.8 3.6 7.9C23.2 309.1 46 336.7 75 360.1c91.2 73.6 247.4 108.6 400 89.8 143.3-17.7 260-82.4 298-165.2 2.4-5.3 4.5-9.5 4.6-9.4.2.1-.4 4-1.2 8.7zM27 346c38.6 57.4 116.7 104 213.3 127.4 52 12.6 94.9 17.5 152.8 17.6 70.6 0 128.7-8.5 188.9-27.6 89-28.4 156.2-76.2 186.6-132.8l4.4-8.1V636c0 309.7-.1 313.6-2 321.4-20.3 80.5-119.2 149.3-253 176-41.3 8.2-77.4 11.6-125 11.6-71.9 0-132.6-9.4-193-29.7-36.5-12.3-77.2-32.4-103-50.9-46.5-33.3-74.9-72-83.4-113.6-1.4-6.9-1.6-39.9-1.6-319.5l.1-311.8 4.5 8.9c2.5 4.9 7.2 12.8 10.4 17.6zm-8 628.5c8.9 22.5 21.8 41.4 41.9 61.6C129.6 1104.8 255.8 1147 393 1147c123.8 0 238.8-34.2 312-92.7 10.6-8.5 28.8-26.5 36.2-35.9 8.1-10.2 16.2-22.9 21.4-33.6 2.5-5.1 4.3-8.4 3.9-7.3-.4 1.1-3.2 10.5-6.3 21l-5.7 19-.2 46.9-.2 46.9-3.6 10.6-3.5 10.6-35.3 31.6-35.3 31.6-22.5 10.3c-12.3 5.6-33.2 15.2-46.4 21.2-44.5 20.4-41.7 19.4-56.5 21.7-13.9 2.1-38.3 5.7-62 9.1-7.4 1.1-22.5 3.3-33.5 4.9-11 1.7-29.7 4.4-41.5 6.1-24.2 3.5-17.7 3.9-64-3-15.1-2.2-30.4-4.5-34-5-5.9-.9-31.1-4.6-78.1-11.5-17.5-2.6-17.6-2.6-33-9.6-8.5-3.9-25.3-11.6-37.4-17.1-12.1-5.6-30.4-14-40.7-18.7l-18.7-8.6-35.3-31.7-35.4-31.6-3.3-10.8-3.3-10.8.2-44.3.1-44.2-6-21.3c-3.4-11.7-7.6-26-9.6-31.7-1.9-5.8-3.5-11.9-3.4-13.5 0-2.1.6-.8 2 4.1 1 4 3.3 10.7 4.9 14.8zm745.3 105.3l-8.8 26.7-.3-41.7-.2-41.7 7.5-25.8c4.1-14.2 8-27.6 8.7-29.8 1.1-3.4 1.3 2.6 1.6 40.8l.2 44.9-8.7 26.6zm-741-80.3l6.2 21 .3 42.5c.1 23.3 0 42.1-.4 41.7-.4-.4-4.5-12.5-9-27l-8.4-26.2.1-43.5v-43.5l2.5 7c1.4 3.8 5.3 16.4 8.7 28z"/><path d="M356 19.1c-44.7 2.4-89.9 10.4-133.2 23.5-84.1 25.3-152 73.3-180.2 127.5C30 194.1 25 219.4 28 242.7c4.5 34.3 19.4 62.9 47.7 91.7 56.9 57.8 153.8 95.7 268.8 105.1 35.8 3 90.9 1.7 127-3 123.8-15.9 224.2-67.5 266.6-137.2 26.9-44.3 27.5-93.2 1.5-136.8-10.8-18-28.4-37.8-49.1-55-30.6-25.5-79.9-50.7-127.3-64.9C497.9 22.9 429.1 15.1 356 19.1zm-22.7 5.6c-.7.2-1.9.2-2.5 0-.7-.3-.2-.5 1.2-.5s1.9.2 1.3.5zm122 0c-.7.2-1.9.2-2.5 0-.7-.3-.2-.5 1.2-.5s1.9.2 1.3.5zM311 27.5c-30.6 4.8-55 10.5-80.7 19.1-45.8 15.2-82.5 35.4-113.8 63-4.9 4.4-12.4 10.6-16.5 13.9-27.6 21.9-47.7 46.4-58.7 71.5-4.2 9.7-4.2 7.1.1-6.2 8.2-25.2 22-46.3 44.4-68C127.6 80.4 196.3 48.4 275 32.6c19.4-3.9 41.5-7.3 47-7.4 1.9 0-3 1-11 2.3zM472.3 26c63.7 9.3 112.6 23.9 159.2 47.5 30.6 15.5 51.3 30.1 71.5 50.4 16 16.1 24.7 27.9 33.4 45.6 6 12.1 12.6 30.9 11.2 32.2-.3.4-.6.1-.6-.6 0-2.5-7.9-18.2-13.6-26.8-11.8-18.2-27.3-34.8-47.3-50.8-6.4-5.1-14.7-12.1-18.6-15.5C622.9 68 556.3 40.2 475 27.5c-8-1.3-13.5-2.3-12.2-2.4 1.3-.1 5.6.4 9.5.9zm-41 4.5c57.8 4.1 109.4 16.1 155.6 36.3 32.5 14.1 62.6 33.8 83 54.1 48.1 47.7 56 105.9 21.7 159.1-25.1 38.8-77.5 73.4-143.2 94.4-68.8 22-154.1 28.4-232.4 17.5-94.4-13.1-177.3-52.7-214.7-102.7-16.5-21.9-24.6-41.6-27.4-66.7-5.4-48.4 25.5-97.9 84.1-134.3 69.8-43.4 171.7-64.9 273.3-57.7zM91 138.2c-11.3 15.6-19.9 35.2-23.4 52.9-2.4 12.1-2.5 31.4-.3 41.4.9 4.4 2.2 10.7 2.9 14 1.7 9.3 6.5 22.1 12 32.5 24.2 45.6 77.3 84.2 148.8 108 34.8 11.6 68.7 18.6 113 23.2 19.1 2 82.2 1.7 102.5-.5 124.7-13.4 221.1-62.4 257.3-130.7 5.5-10.4 10.3-23.2 12-32.5.7-3.3 2-9.6 2.9-14 2.2-10.1 2-29.5-.3-41.4-3.5-17.8-12-36.9-23.5-53l-6.1-8.4 6.9 6.1c26.3 23.2 44.5 50.3 52.8 78.7 2.4 8 2.6 10.2 2.2 19.5-1 21.2-7 40.6-18.7 60.4-38.7 65.5-135.1 116.4-252 133-32.3 4.6-51 5.9-87 5.9s-54.7-1.3-87-5.9C171.4 408.3 67.4 345 41.2 266.5c-3.3-9.7-5.4-21.3-5.9-32.5-.4-9.3-.2-11.5 2.2-19.4 7.8-26.7 20.6-46.9 44.7-70.9 7.6-7.5 14-13.7 14.3-13.7.2 0-2.3 3.7-5.5 8.2zm611 137.6c-18.4 35.5-53.7 66.4-102.3 89.7-75.7 36.3-173.5 50.8-269.2 39.9C213.3 392.1 118 341.9 83.9 275.7c-5-9.8-4.1-9.2 3.3 2.3 24.4 37.7 74.9 73 135 94.4 136 48.2 310.3 33.2 414.8-35.9 28.9-19.1 53.3-43.1 65.2-64.3 4.7-8.2 4.5-5.3-.2 3.6z"/><path d="M350 52.5c-85.5 8.3-155.8 36.6-199.3 80.1-26.2 26.2-38 51.2-37.9 79.9.1 17.3 2.7 28.4 10.7 45 21.9 45.6 79.8 84.5 154.7 103.9 38.3 10 71.3 14 114.8 14 28.3 0 43.2-1 67.5-4.5 130.5-18.6 219.9-89.1 212.4-167.4-2.4-25-13.6-46.8-35.4-68.9-44.6-45.4-115.6-74-203.5-82.2-19.1-1.7-65.2-1.7-84 .1zm93.5 4c63.9 7.4 116.7 25 159 53.3 17.5 11.7 35.2 29.1 45.4 44.6 8.2 12.6 9.6 16.5 1.9 5.5-6.8-9.8-25-27.9-36.8-36.6C558.3 83.1 480.2 61 392.7 61c-91 0-173.1 24.6-226.4 67.7-11.6 9.3-24.9 23.4-31.3 33.1-6.4 9.4-6.5 8-.2-2.4 9.4-15.6 21.1-28.8 36.4-40.7C218 82.3 285.3 60 365 54.6c13.1-.9 65.2.4 78.5 1.9zm-1.5 10c81.4 9.1 148.5 36.4 189.4 76.9 14.2 14.1 24.4 29.5 31.3 47.3 2.3 6.1 2.6 8.2 2.7 20.3.1 19.5-3.9 33.9-14.2 51.4-27.7 46.6-97.6 85.1-179.9 99-29.8 5-42.5 6-78.3 6-25.6 0-37.1-.4-48.5-1.8-50.2-5.8-91.1-17-128-35-52.1-25.4-84.8-59.7-94.2-98.7-2.7-11.2-2.4-31.3.6-39.8 24.1-68.9 121.7-120 243.6-127.5 13.8-.8 61.7.4 75.5 1.9z"/><path d="M367 83c-97.9 6.5-180.1 47-206.5 101.5-36.5 75.4 36.9 153.4 164.8 175 101.5 17.1 210.2-6 269.4-57.4 18.5-16.1 32.7-37.6 37.9-57.6 2.8-10.5 2.5-32.2-.4-43C617.3 147.8 549.9 103 461.5 88c-28.3-4.7-67.4-6.8-94.5-5zm70.7 9.4c67.4 8.2 122 30.2 155.9 62.9 16 15.3 24.7 28.4 29.9 44.7 3.6 11.1 4.5 27.9 2.1 39.3-11 53.3-79.5 99-169.5 113.2-45.1 7-103.5 5.8-143.1-3.1-16.9-3.9-24.5-5.9-36.5-9.9-64.1-21.2-107.5-58.6-116.1-100.2-2.2-10.6-1.5-28.2 1.6-37.8 5.4-17.1 14.8-31.4 30.7-46.6 37.5-35.8 101.7-59.3 176.3-64.3 11.7-.8 57.1.4 68.7 1.8z"/><path d="M361.5 104.1c-19.4 2-40.1 5.6-33 5.8 1.1.1 5.8-.6 10.5-1.3 31.5-5.4 74.7-5.3 108.9 0 5.2.8 9.8 1.7 10.2 2 .4.2 1 0 1.4-.6.3-.5.3-1-.2-1-.4 0-4.6-.7-9.3-1.6-22.1-3.9-66.1-5.6-88.5-3.3zM293 110.4c-9.5 2.1-15.8 4.4-21.7 8.2-6.3 4-8.8 7.5-8.8 12.5 0 8.2 9 12.9 24.4 12.9 29.3-.1 52-16.3 39.8-28.5-1.8-1.8-5.1-3.8-7.2-4.5-6.3-1.8-19.3-2.1-26.5-.6zm25.8 8.9c4.2 2.3 4.1 4.9-.3 8.3-8.3 6.3-28.3 10.7-38.7 8.5-3.2-.7-6.7-2-8-3-2.1-1.8-2.1-2-.5-4.4 2.1-3.3 12.4-8.3 20.7-10.2 8.5-1.9 22.4-1.5 26.8.8zM466.5 110.4c-6.3 1.6-8.8 2.9-11.4 6.2-6.4 8.2 2.4 19 19.9 24.5 9.2 2.9 26.7 3.7 34.2 1.5 7.4-2.1 12.3-7.3 11.5-12.3-1.5-9.2-12.7-16.3-31.5-19.9-8.8-1.7-15.9-1.7-22.7 0zm24 8.1c8.7 1.8 19 6.8 21.2 10.2 1.6 2.4 1.6 2.6-.5 4.4-4 3.1-12.6 4.3-22 3-14.5-2.1-28.2-8.4-28.2-13.1 0-5.3 15-7.6 29.5-4.5zM248 136.6c-17.3 9.6-35.9 25-45.5 37.4-6.7 8.7-15.8 26-13.6 26 .5 0 1.9-2.4 3.1-5.4 7.7-19.1 29.2-40.8 54.8-55.5 5-2.9 9.2-5.4 9.2-5.7 0-.9-1.8-.2-8 3.2zM530 133.4c0 .2 3.7 2.6 8.3 5.2 26.1 14.9 44.9 33.4 54.4 53.3 4 8.5 4.1 8.6 4.8 8 .7-.8-6-14.2-10.2-20.7-9-13.5-28.2-30.5-46.8-41.1-8.3-4.7-10.5-5.7-10.5-4.7zM369.5 158.5c-25.5 4-44 12.3-58.5 26.1-13.6 13.1-17.5 24.1-13.1 38 5.6 18.3 27 34.7 54.9 41.9 24.9 6.5 55.5 6.5 80.4 0 27.5-7.1 49.2-23.6 54.8-41.4 4.8-15.3.2-27.7-15.3-40.9-14.6-12.5-32.8-20.1-57.2-23.8-11-1.7-35.1-1.6-46 .1zm51.4 4c26.8 5.2 48.2 17 56.2 30.9 3.9 6.9 3.7 7.8-.7 2.8-14.7-17.3-48.9-29.2-83.4-29.2-34.5 0-68.7 11.9-83.4 29.2-4.4 5-4.6 4.1-.7-2.8 9.3-16.2 36.9-29.3 68.6-32.8 8.2-.9 35.2.3 43.4 1.9zm-3.4 9.5c23.6 4.3 40.7 11.6 52.4 22.5 6.4 6 12.1 13.6 12.1 16.3 0 .8-1.6-.6-3.6-3-8.2-9.8-22.5-18.8-38.6-24.1-47.3-15.8-109-4.5-131.8 24-1.9 2.4-3.6 3.9-3.8 3.3-.7-2 4.8-9.8 11.2-15.8 13.6-12.7 33.9-20.9 60.3-24.2 8.4-1.1 33.7-.5 41.8 1zm-10.9 8.4c31.2 1.8 63.9 17.3 72.8 34.4 3.1 6.1 1.5 5.7-5.6-1.3-19.4-19-54.8-29.1-92.6-26.4-20 1.4-33.4 4.9-50.1 13.1-8.4 4.1-12 6.6-18.3 12.7-8 7.8-10.2 8-5.2.5 9.7-14.5 29.8-25.7 55.6-30.9 8-1.7 27.1-3.4 31.8-2.9 1.4.2 6.6.5 11.6.8zm19.4 12.9c23.3 5.5 43.1 16.3 51.1 27.9 2.1 3.1 2 3.1-2.2-.8-13.5-12.6-34.1-21.3-59.1-25-15-2.2-42.1-1.4-55.3 1.6-21.7 4.9-36.9 12.1-49.5 23.5l-4.4 4 3.4-4.4c10.2-13.1 33.5-24.5 58.5-28.6 14.3-2.3 44-1.4 57.5 1.8zm-20 8.7c29.5 3.1 52 11.9 65.3 25.7l3.8 4-4.3 4.3c-9.5 9.6-24.5 17.2-42.3 21.6-41.8 10.3-90.3 1-113.4-21.5l-4.3-4.3 3.3-3.5c13.3-13.8 36.8-23.5 63.9-26.2 12-1.2 17.2-1.2 28-.1zM192 204.3c-7.1 1.6-13.6 5-18.2 9.5-13.1 12.6-2.5 28.6 19.8 30 10.5.6 19.6-1.1 27-5.2 9.4-5.2 13.9-12.7 12-20.1-1.1-4.5-7.3-10.2-13.4-12.6-7-2.6-19.5-3.4-27.2-1.6zm21.4 7.8c6.1 1.5 11.6 6.2 11.6 9.9 0 8.9-18.7 16.7-33.6 13.9-14.3-2.6-19.4-9.7-12.1-16.6 1.7-1.7 4.3-3.6 5.7-4.3 7.1-3.7 20.1-5 28.4-2.9zM565.2 204.6c-7.2 1.9-10.4 3.7-14 7.9-7.7 8.7-4.5 19 8.2 26.1 7.7 4.2 15.6 5.8 26.4 5.2 14.3-.8 24.4-7.1 25.9-16.1 2.5-15.8-24.2-29.2-46.5-23.1zm22.3 7.8c6.5 1.7 9.2 3.1 13.3 6.9 7.2 6.9 2.1 14-12.2 16.6-10.7 2-26-2-31.1-8.1-7.1-8.4 1.8-16.5 18.5-16.7 3.6 0 8.8.5 11.5 1.3zM190.1 252.2c8.3 21.2 29.8 42.8 58.1 58.8 3.2 1.7 6.2 3 6.8 2.8.6-.2-3.1-2.7-8.3-5.6-24.6-14-43.7-32.8-53-52.4-4.6-9.6-6.9-11.8-3.6-3.6zM594.7 251c-7.5 19.8-29.6 42.6-55.3 57.1-5.2 2.9-9.4 5.7-9.4 6.2s3-.8 6.8-2.9c16.6-9.2 33.2-22.1 42.3-32.7 9.5-11.2 18.4-26.7 17.7-30.6-.2-.9-1.1.4-2.1 2.9zM476.6 293.6c-13.5 4.3-22 15-20.1 25.3 2 10.9 11.8 18.8 26.4 21.2 15.5 2.6 32.2-4.4 37.2-15.6 5.3-11.6-.6-23.4-14.8-29.7-6.4-2.8-21.6-3.5-28.7-1.2zm24.7 8c5.9 2.1 9.8 5.3 11.8 9.9 3.3 7.5-.3 14-10.6 18.7-7.7 3.5-20 3.3-27.7-.5-10.9-5.4-13.7-13.9-7.2-21.7 6.6-7.8 21.5-10.7 33.7-6.4zM283.3 294.8c-11.8 4.2-18.3 11.3-19.1 20.6-.9 11.5 8.2 20.9 23.7 24.6 9.6 2.3 24.1-.7 31.6-6.4 14.1-10.8 10.7-29.2-6.7-37.1-8.3-3.8-21.5-4.5-29.5-1.7zm25.1 8.2c5.8 2.2 11.1 7.2 12.2 11.5 3 11.9-17.2 22.1-34 17.1-18.7-5.6-19.8-22.5-1.9-29.1 5.9-2.1 17.2-1.9 23.7.5zM327 337.7c0 .6 1.9 1.3 4.3 1.7 19.6 2.9 26.5 3.6 42.8 4.7 14.1.9 22.9.9 37 0 20.5-1.3 46.9-4.7 48.4-6.3.7-.7-.3-.9-3-.4-27.2 4.3-41.5 5.6-63.5 5.6-21.5 0-45.9-2.2-62.7-5.6-2-.4-3.3-.2-3.3.3zM37 1076.6c0 29.5.3 44.4 1 44.4s1-14.4.8-43.5l-.3-43.6 2.5.6c10.2 2.5 34.5 24.2 53.6 48.1l7.9 9.7.5 44.6.5 44.6.3-44.7.2-44.6-3.6-4.9c-6.8-8.9-12.7-15.7-23.4-26.7-16.1-16.7-28.1-25.7-36.7-27.7l-3.3-.7v44.4zM744.4 1032.9c-5.1 1.3-13.2 6.2-20.7 12.6-9.7 8.3-28.1 27.6-36.2 37.9l-6.5 8.4.2 44.8.3 44.9.5-44.6.5-44.6 4.5-5.8c12.4-16.1 34.3-38.3 45.1-45.6 5.2-3.5 11.7-6.9 13.4-6.9.3 0 .5 19.6.5 43.5 0 28.3.3 43.5 1 43.5s1-15.5 1-44.5c0-24.5-.1-44.5-.2-44.4-.2.1-1.7.4-3.4.8zM116 1142.1c0 24.9.2 45 .5 44.7.3-.3.6-19.8.8-43.4l.2-42.9 10 .1c8.6.1 11.5.6 20.6 3.7 18.7 6.3 39.7 18.3 56.4 32.4l7 5.9.3 43.9c.1 27.3.6 44.3 1.2 44.9.7.7 1-14.2 1-43.7V1143l-3.2-3c-6.6-6.1-23-18.1-32.4-23.6-18.7-11-36.8-17.3-51.6-17.9-4.8-.2-9.2-.6-9.8-1-.7-.4-1 13.3-1 44.6zM651.5 1099c-21.4 3.1-48.6 16.9-72.3 36.6l-8.2 6.8v44.8c0 29.7.3 44.7 1 44.3.6-.4 1-16.3 1-44.5v-43.8l5.3-4.7c13.5-12.2 39.3-27.8 55.4-33.4 9-3.2 18.9-5.1 26.6-5.1h6.7v43.5c0 28.3.3 43.5 1 43.5s1-15.3 1-43.9v-43.9l-3.1-.6c-3.7-.7-7.6-.6-14.4.4zM252.5 1142.6c-2.2.2-8.4.9-13.7 1.5l-9.8 1.1.2 45.2.3 45.1.2-44.1.3-44.2 2.3-.6c11.5-3.1 56.8-3.2 76.1-.1 28.1 4.4 47.8 10.7 63.9 20.3l7.7 4.6v45.4c0 29.9.3 45.1 1 44.7.6-.4 1-16.7 1-45.5v-44.9l-4.2-2.9c-15.8-10.8-42.4-19.5-72.6-23.6-11-1.6-44.7-2.8-52.7-2zM494.5 1142.9c-35.4 2.8-68.5 12.4-87.1 25.2l-4.4 3v45.5c0 30.1.3 45.3 1 44.9.6-.4 1-16.7 1-45.5v-44.9l5.9-3.6c19.1-11.6 46.2-19.3 78.6-22.5 18.4-1.8 53.1-.9 63.1 1.6l2.4.6.3 44.2.2 44.1.3-45.1.2-45-9.2-1.3c-11.9-1.6-39.4-2.2-52.3-1.2z"/></svg>