<svg height="512pt" viewBox="0 -1 512.106 512" width="512pt" xmlns="http://www.w3.org/2000/svg"><path d="M301.762 448.559a19.323 19.323 0 009.812 14.078 19.317 19.317 0 0017.145.726l81.62-36.054a8.53 8.53 0 004.641-10.54l-40.957-121.69c-6.554-19.2-26.093-30.778-46.082-27.31l-12.8 2.297c-21.922 3.825-36.735 24.52-33.278 46.508zm20.07-.813a2.182 2.182 0 01-2.023-.086 2.238 2.238 0 01-1.176-1.703L298.68 314.082c-.41-2.84-.313-5.73.293-8.535l14.43 11.402a44.584 44.584 0 0114.933 21.215l31.273 92.941zm-3.719-160.816l12.797-2.297a23.653 23.653 0 014.168-.367 24.116 24.116 0 0122.746 16.289l38.496 114.347-21.05 9.293-30.766-91.418a61.436 61.436 0 00-20.563-29.199l-15.644-12.375a23.891 23.891 0 019.816-4.273zm0 0"/><path d="M21.879 80.004l127.426 37.547a13.24 13.24 0 014.703 2.515l44.945 37.446 7.246 6.058 58.723 305.23a51.803 51.803 0 0026.848 36.16 51.801 51.801 0 0045.011 1.462l81.88-36.172a28.5 28.5 0 0032.581 7.988l43.188-17.715c14.543-5.96 21.5-22.578 15.547-37.12L431.324 231.41l5.836-6.742c10.887-12.61 9.516-31.648-3.062-42.57l-89.993-77.97a30.192 30.192 0 00-21.94-7.288 30.214 30.214 0 00-20.669 10.367l-14.555 16.836-32.71-27.254h-.051l-60.586-49.281a30.013 30.013 0 00-10.531-5.54L45.027 1.286C29.043-3.41 12.273 5.73 7.56 21.711l-6.11 20.746a30.188 30.188 0 0020.43 37.547zm272.492 61.574l20.04-23.176a13.142 13.142 0 018.984-4.507c3.472-.25 6.906.89 9.539 3.168L422.926 195c5.469 4.746 6.062 13.02 1.332 18.5l-9.266 10.715a8.538 8.538 0 00-1.453 8.824l80.648 196.79c2.383 5.816-.402 12.464-6.218 14.847l-43.203 17.707a11.4 11.4 0 01-8.723-.035 11.397 11.397 0 01-6.137-6.196 8.53 8.53 0 00-4.707-4.687 8.519 8.519 0 00-6.64.105l-88.672 39.176a34.768 34.768 0 01-48.188-25.242l-59.297-308.215a8.561 8.561 0 00-2.918-4.941l-2.68-2.235 32.692-35.054 32.973 27.46a8.534 8.534 0 0011.902-.972zM17.816 47.305l6.094-20.762a13.12 13.12 0 0116.305-8.883l137.95 40.61a13.094 13.094 0 014.573 2.406l53.555 43.52-32.613 34.988-38.75-32.301a29.982 29.982 0 00-10.793-5.77L26.69 63.593c-6.949-2.05-10.918-9.34-8.875-16.288zm0 0"/><path d="M59.75 293.336a58.428 58.428 0 0059.73-59.734c0-27.204-33.058-76.329-46.84-92.227a17.586 17.586 0 00-12.89-5.621 17.589 17.589 0 00-12.895 5.621C33.075 157.273.015 206.398.015 233.602c-.359 15.953 5.817 31.355 17.098 42.636s26.684 17.457 42.637 17.098zm0-140.8c15.05 17.359 42.664 61.312 42.664 81.066A41.266 41.266 0 0159.75 276.27a41.266 41.266 0 01-42.668-42.668c0-19.747 27.621-63.7 42.668-81.067zm0 0M244.664 159.2a8.536 8.536 0 00-6.16 10.402l4.266 16.71a8.54 8.54 0 0010.378 6.153c4.567-1.164 7.325-5.813 6.16-10.38l-4.265-16.714a8.537 8.537 0 00-10.379-6.172zm0 0M251.969 214.234l12.094 51.2a8.535 8.535 0 0010.265 6.34 8.536 8.536 0 006.356-10.243l-12.09-51.199a8.544 8.544 0 00-14.168-4.254 8.553 8.553 0 00-2.457 8.18zm0 0"/></svg>