<svg xmlns="http://www.w3.org/2000/svg" fill="#ffffff" viewBox="0 0 482.319 482.319"><path  d="M478.28 284.402c-8.594-15.464-28.096-21.034-43.56-12.44l-43.68 18.8-11.2-22.4a24 24 0 01-2.56-10.72v-88.48c-.069-56.083-41.609-103.469-97.2-110.88l32-44.48a8 8 0 00-6.8-12.64h-128a8 8 0 00-6.48 12.64l32 44.48c-55.718 7.264-97.43 54.69-97.52 110.88v90.16a82.116 82.116 0 00-12.08 12.08l-35.36 44.24-9.92-14.88a7.998 7.998 0 00-5.28-3.6 8.476 8.476 0 00-6.16 1.52l-32 24a8.002 8.002 0 00-3.2 6.48v144a8 8 0 008 8h104a8.004 8.004 0 005.68-2.32l24-24a8 8 0 00.96-10.08l-4-6 185.04-42.56a125.122 125.122 0 0028.88-10.56l112-57.68c15.464-8.594 21.034-28.096 12.44-43.56zM192.8 17.162h96.96l-28.56 40h-40l-28.4-40zm-71.52 152c0-53.019 42.981-96 96-96h48c53.019 0 96 42.981 96 96v88.48a39.997 39.997 0 004.24 17.84l10.72 21.68-54.96 23.36a8.007 8.007 0 01-3.12.64H177.28a8 8 0 010-16h64c30.928 0 56-25.072 56-56a8 8 0 00-8-8h-10.32a27.599 27.599 0 002.32-10.88 27.041 27.041 0 00-17.44-25.2l-14.56-5.44v-30.48h5.12c6.009 0 10.88 4.871 10.88 10.88v5.12h16v-5.12c-.044-14.827-12.053-26.836-26.88-26.88h-5.12v-16h-16v16h-5.12c-14.845-.048-26.919 11.948-26.966 26.793a26.882 26.882 0 0017.526 25.287l14.56 5.44v30.48h-5.12c-6.009 0-10.88-4.871-10.88-10.88v-5.12h-16v5.12a27.599 27.599 0 002.32 10.88h-47.44a80.005 80.005 0 00-34.88 8v-80zm144 61.12c0 6.009-4.871 10.88-10.88 10.88h-5.12v-24.48l8.96 3.36a11.041 11.041 0 017.04 10.24zm-32-61.12v24.48l-8.96-3.36a11.041 11.041 0 01-7.04-10.24c0-6.009 4.871-10.88 10.88-10.88h5.12zm-123.28 296H17.28v-132l22-16.56 88 131.52-17.28 17.04zm348.08-151.12l-111.52 57.36a109.402 109.402 0 01-25.28 9.2l-190.8 43.92-63.28-94.96 38.48-48.4a64.4 64.4 0 0150.48-24h124.32c-3.802 18.627-20.189 32.004-39.2 32h-64c-13.255 0-24 10.745-24 24s10.745 24 24 24H318a24.002 24.002 0 009.44-1.92l114.24-48.8c7.622-4.529 17.471-2.021 22 5.6s2.022 17.471-5.6 22z"/><path d="M81.28 409.162c-13.255 0-24 10.745-24 24s10.745 24 24 24 24-10.745 24-24-10.745-24-24-24zm0 32a8 8 0 110-16 8 8 0 010 16zM434.56 49.162a30.96 30.96 0 01-25.28-25.28 8 8 0 00-16 0A30.96 30.96 0 01368 49.162a8 8 0 000 16 30.96 30.96 0 0125.28 25.28 8 8 0 0016 0 30.96 30.96 0 0125.28-25.28 8 8 0 000-16zm-33.28 19.44a45.757 45.757 0 00-11.44-11.44 45.757 45.757 0 0011.44-11.44 45.757 45.757 0 0011.44 11.44 45.757 45.757 0 00-11.44 11.44zM74.56 209.162a30.96 30.96 0 01-25.28-25.28 8 8 0 00-16 0A30.96 30.96 0 018 209.162a8 8 0 000 16 30.96 30.96 0 0125.28 25.28 8 8 0 0016 0 30.96 30.96 0 0125.28-25.28 8 8 0 000-16zm-33.28 19.44a45.757 45.757 0 00-11.44-11.44 45.757 45.757 0 0011.44-11.44 45.757 45.757 0 0011.44 11.44 45.757 45.757 0 00-11.44 11.44z"/></svg>