<svg xmlns="http://www.w3.org/2000/svg" fill="#ffffff" viewBox="0 0 479.996 479.996"><path d="M477.671 40.317L449.039 11.55a8 8 0 00-9.712-1.264l-27.368 16a7.944 7.944 0 00-3.544 4.376l-6.744 20.2-20.2 6.744a7.994 7.994 0 00-3.128 1.928L364.687 73.15h-36.688a8 8 0 00-5.656 2.344L207.999 189.837l-26.344-26.344a8 8 0 00-11.312 0l-40 40a8 8 0 000 11.312l10.344 10.344-18.344 18.344a8 8 0 000 11.312l18.344 18.344-74.344 74.344-40 40-18.344 18.344c-10.665 10.666-10.665 27.958 0 38.624l26.344 26.344 11.312-11.312-26.344-26.344c-4.415-4.42-4.415-11.58 0-16l12.688-12.688 20.688 20.688-10.344 10.344 11.312 11.312 10.344-10.344 26.344 26.344a8 8 0 0011.312 0l114.344-114.344 18.344 18.344a8 8 0 0011.312 0l18.344-18.344 10.344 10.344a8 8 0 0011.312 0l40-40a8 8 0 000-11.312l-26.344-26.344 114.344-114.344a8 8 0 002.344-5.656v-36.688l13.656-13.656a7.994 7.994 0 001.928-3.128l6.744-20.2 20.2-6.744a8.004 8.004 0 004.368-3.528l16-27.2a8 8 0 00-1.224-9.688zM215.999 220.461l52.688 52.688-28.688 28.688-52.688-52.688 28.688-28.688zm-40-40l26.344 26.344 2.344 2.344-28.688 28.688-18.344-18.344-10.344-10.344 28.688-28.688zm-80 265.376l-52.688-52.688 12.688-12.688 52.688 52.688-12.688 12.688zm24-24l-52.688-52.688 10.344-10.344 2.344-2.344 52.688 52.688-12.688 12.688zm24-24l-52.688-52.688 12.688-12.688 52.688 52.688-12.688 12.688zm24-24l-52.688-52.688 12.688-12.688 52.688 52.688-12.688 12.688zm24-24l-52.688-52.688 12.688-12.688 52.688 52.688-12.688 12.688zm48 0l-18.344-18.344-64-64-18.344-18.344 12.688-12.688 18.344 18.344 64 64 18.344 18.344-12.688 12.688zm68.688-36.688l-28.688 28.688-10.344-10.344-18.344-18.344 28.688-28.688 2.344 2.344 26.344 26.344zm91.312-155.312l-12 12-14.344-14.344-11.312 11.312 14.344 14.344-12.688 12.688-14.344-14.344-11.312 11.312 14.344 14.344-12.688 12.688-14.344-14.344-11.312 11.312 14.344 14.344-12.688 12.688-14.344-14.344-11.312 11.312 14.344 14.344-16.688 16.688-2.344-2.344-64-64-2.344-2.344 16.688-16.688 14.344 14.344 11.312-11.312-14.344-14.344 12.688-12.688 14.344 14.344 11.312-11.312-14.344-14.344 12.688-12.688 14.344 14.344 11.312-11.312-14.344-14.344 12.688-12.688 14.344 14.344 11.312-11.312-14.344-14.344 12-12h33.376l35.312 35.312v33.376zm50.624-91.328l-21.152 7.056a7.918 7.918 0 00-5.056 5.056l-7.408 22.208-9.008 9.008-28.688-28.688 9.008-9.008 22.208-7.408a7.918 7.918 0 005.056-5.056l7.056-21.144 19.424-11.352 19.912 20-11.352 19.328z"/></svg>