<svg xmlns="http://www.w3.org/2000/svg" width="138.367" height="241.27"><defs><filter id="a" x="0" y="0" width="138.367" height="241.27" filterUnits="userSpaceOnUse"><feOffset dx="10" dy="10"/><feGaussianBlur stdDeviation="10" result="blur"/><feFlood/><feComposite operator="in" in2="blur"/><feComposite in="SourceGraphic"/></filter></defs><g filter="url(#a)"><path data-name="Path 16" d="M59.275 20a32.672 32.672 0 00-22.435 8.5q-8.663 7.789-15.771 23.721a11.6 11.6 0 00-1 6.2 9.84 9.84 0 002.11 5.488l9.552 11.683q1.777 2.124 3.887 1.593t3.443-3.363q4.887-9.205 8.219-12.746a13.361 13.361 0 0110.218-4.6q5.553 0 10.218 4.957a16.98 16.98 0 015.109 12.746 16.615 16.615 0 01-2.888 9.559q-2 3.186-8 8.5l-.444.354q-8.441 7.435-11.995 13.1-5.775 9.913-5.775 24.075v3.54a11.1 11.1 0 001.555 6.019 4.461 4.461 0 003.776 2.478h15.993a4.461 4.461 0 003.776-2.478 11.1 11.1 0 001.555-6.019v-2.124a12.18 12.18 0 012.666-7.435 51.248 51.248 0 016.22-6.373 91.382 91.382 0 008.666-8.864 48.538 48.538 0 007.33-13.454 61.885 61.885 0 003.11-20.534 66.389 66.389 0 00-6-27.969 52.533 52.533 0 00-14.549-19.3Q68.827 20 59.275 20zm-2.221 132.058q-6.442 0-10.884 7.258a32.59 32.59 0 00-4.443 17.348 32.59 32.59 0 004.443 17.348q4.442 7.258 10.884 7.258t10.884-7.258a32.59 32.59 0 004.443-17.348 32.59 32.59 0 00-4.443-17.348q-4.442-7.258-10.884-7.258z" fill="#fff"/></g></svg>